<?xml version="1.0" encoding="utf-8"?>
<svg xmlns="http://www.w3.org/2000/svg" viewBox="0 0 500 500">
  <path d="M 376.433 151.189 C 313.933 88.689 220.633 88.689 158.133 151.189 C 95.633 213.689 95.633 314.989 158.133 377.489 C 220.633 439.989 313.933 439.989 376.433 377.489 C 388.933 364.989 409.233 364.989 421.733 377.489 C 434.233 389.989 434.233 410.289 421.733 422.789 C 334.233 510.289 200.433 510.289 112.933 422.789 C 25.433 335.289 25.433 193.489 112.933 105.989 C 200.433 18.489 334.233 18.489 421.733 105.989 C 434.233 118.489 434.233 138.789 421.733 151.289 C 409.233 163.789 388.933 163.789 376.433 151.289 L 376.433 151.189 Z" style="stroke-width: 1; fill: rgb(104, 185, 255);"/>
</svg>